<svg xmlns="http://www.w3.org/2000/svg" xmlns:xlink="http://www.w3.org/1999/xlink" width="401" zoomAndPan="magnify" viewBox="0 0 300.75 60" height="80" preserveAspectRatio="xMidYMid meet" version="1.2"><defs><clipPath id="0d58f14f6f"><path d="M 0.0703125 12 L 16 12 L 16 29 L 0.0703125 29 Z M 0.0703125 12 "></path></clipPath><clipPath id="1cd27369da"><path d="M 7 19 L 299.75 19 L 299.75 59.226562 L 7 59.226562 Z M 7 19 "></path></clipPath><clipPath id="170fe5d436"><path d="M 0.0703125 12 L 16 12 L 16 29 L 0.0703125 29 Z M 0.0703125 12 "></path></clipPath><clipPath id="87bf8cd1b1"><path d="M 7 19 L 299.75 19 L 299.75 59.226562 L 7 59.226562 Z M 7 19 "></path></clipPath><clipPath id="03f3c7ec59"><path d="M 73 0.0234375 L 90 0.0234375 L 90 16 L 73 16 Z M 73 0.0234375 "></path></clipPath></defs><g id="71e87af741"><path style=" stroke:none;fill-rule:nonzero;fill:#f67c24;fill-opacity:1;" d="M 88.71875 33.773438 C 88.71875 34.121094 88.753906 34.460938 88.820312 34.800781 C 88.886719 35.140625 88.988281 35.46875 89.117188 35.785156 C 89.25 36.105469 89.414062 36.410156 89.605469 36.695312 C 89.796875 36.984375 90.015625 37.25 90.257812 37.492188 C 90.503906 37.738281 90.769531 37.957031 91.054688 38.148438 C 91.34375 38.339844 91.644531 38.5 91.964844 38.632812 C 92.285156 38.765625 92.613281 38.863281 92.953125 38.933594 C 93.289062 39 93.632812 39.035156 93.976562 39.035156 C 94.324219 39.035156 94.664062 39 95.003906 38.933594 C 95.34375 38.863281 95.671875 38.765625 95.988281 38.632812 C 96.308594 38.5 96.613281 38.339844 96.898438 38.148438 C 97.1875 37.957031 97.453125 37.738281 97.695312 37.492188 C 97.941406 37.25 98.160156 36.984375 98.351562 36.695312 C 98.542969 36.410156 98.703125 36.105469 98.835938 35.785156 C 98.96875 35.46875 99.066406 35.140625 99.136719 34.800781 C 99.203125 34.460938 99.238281 34.121094 99.238281 33.773438 C 99.238281 33.429688 99.203125 33.085938 99.136719 32.75 C 99.066406 32.410156 98.96875 32.082031 98.835938 31.761719 C 98.703125 31.441406 98.542969 31.140625 98.351562 30.851562 C 98.160156 30.566406 97.941406 30.300781 97.695312 30.054688 C 97.453125 29.8125 97.1875 29.59375 96.898438 29.402344 C 96.613281 29.210938 96.308594 29.046875 95.988281 28.914062 C 95.671875 28.785156 95.34375 28.683594 95.003906 28.617188 C 94.664062 28.550781 94.324219 28.515625 93.976562 28.515625 C 93.632812 28.515625 93.289062 28.550781 92.953125 28.617188 C 92.613281 28.683594 92.285156 28.785156 91.964844 28.914062 C 91.644531 29.046875 91.34375 29.210938 91.054688 29.402344 C 90.769531 29.59375 90.503906 29.8125 90.257812 30.054688 C 90.015625 30.300781 89.796875 30.566406 89.605469 30.851562 C 89.414062 31.140625 89.25 31.441406 89.117188 31.761719 C 88.988281 32.082031 88.886719 32.410156 88.820312 32.75 C 88.753906 33.085938 88.71875 33.429688 88.71875 33.773438 Z M 88.71875 33.773438 "></path><path style=" stroke:none;fill-rule:nonzero;fill:#f67c24;fill-opacity:1;" d="M 94.28125 35.089844 L 296.574219 33.976562 L 94.28125 32.847656 Z M 94.28125 35.089844 "></path><g clip-rule="nonzero" clip-path="url(#0d58f14f6f)"><path style=" stroke:none;fill-rule:nonzero;fill:#f67c24;fill-opacity:1;" d="M 0.0703125 20.535156 C 0.0703125 21.058594 0.121094 21.570312 0.222656 22.082031 C 0.324219 22.59375 0.472656 23.089844 0.671875 23.570312 C 0.871094 24.050781 1.117188 24.507812 1.40625 24.9375 C 1.695312 25.371094 2.023438 25.773438 2.390625 26.140625 C 2.757812 26.507812 3.160156 26.835938 3.59375 27.125 C 4.023438 27.414062 4.480469 27.660156 4.960938 27.859375 C 5.441406 28.058594 5.9375 28.207031 6.449219 28.308594 C 6.960938 28.410156 7.476562 28.460938 7.996094 28.460938 C 8.515625 28.460938 9.03125 28.410156 9.542969 28.308594 C 10.050781 28.207031 10.546875 28.058594 11.027344 27.859375 C 11.507812 27.660156 11.964844 27.414062 12.398438 27.125 C 12.832031 26.835938 13.230469 26.507812 13.597656 26.140625 C 13.96875 25.773438 14.296875 25.371094 14.585938 24.9375 C 14.875 24.507812 15.117188 24.050781 15.316406 23.570312 C 15.515625 23.089844 15.667969 22.59375 15.769531 22.082031 C 15.871094 21.570312 15.921875 21.058594 15.921875 20.535156 C 15.921875 20.015625 15.871094 19.5 15.769531 18.992188 C 15.667969 18.480469 15.515625 17.984375 15.316406 17.503906 C 15.117188 17.023438 14.875 16.566406 14.585938 16.132812 C 14.296875 15.699219 13.96875 15.300781 13.597656 14.933594 C 13.230469 14.566406 12.832031 14.234375 12.398438 13.945312 C 11.964844 13.65625 11.507812 13.414062 11.027344 13.214844 C 10.546875 13.015625 10.050781 12.867188 9.542969 12.765625 C 9.03125 12.664062 8.515625 12.613281 7.996094 12.613281 C 7.476562 12.613281 6.960938 12.664062 6.449219 12.765625 C 5.9375 12.867188 5.441406 13.015625 4.960938 13.214844 C 4.480469 13.414062 4.023438 13.65625 3.59375 13.945312 C 3.160156 14.234375 2.757812 14.566406 2.390625 14.933594 C 2.023438 15.300781 1.695312 15.699219 1.40625 16.132812 C 1.117188 16.566406 0.871094 17.023438 0.671875 17.503906 C 0.472656 17.984375 0.324219 18.480469 0.222656 18.992188 C 0.121094 19.5 0.0703125 20.015625 0.0703125 20.535156 Z M 0.0703125 20.535156 "></path></g><g clip-rule="nonzero" clip-path="url(#1cd27369da)"><path style=" stroke:none;fill-rule:nonzero;fill:#f67c24;fill-opacity:1;" d="M 7.921875 21.65625 L 141.25 21.179688 L 140.734375 20.957031 L 177.378906 58.980469 L 177.539062 59.144531 L 177.761719 59.144531 L 299.820312 58.621094 L 177.761719 58.09375 L 178.140625 58.257812 L 141.765625 19.96875 L 141.558594 19.746094 L 141.25 19.746094 L 7.921875 19.417969 Z M 7.921875 21.65625 "></path></g><g clip-rule="nonzero" clip-path="url(#170fe5d436)"><path style=" stroke:none;fill-rule:nonzero;fill:#f67c24;fill-opacity:1;" d="M 0.0703125 20.535156 C 0.0703125 21.058594 0.121094 21.570312 0.222656 22.082031 C 0.324219 22.59375 0.472656 23.089844 0.671875 23.570312 C 0.871094 24.050781 1.117188 24.507812 1.40625 24.9375 C 1.695312 25.371094 2.023438 25.773438 2.390625 26.140625 C 2.757812 26.507812 3.160156 26.835938 3.59375 27.125 C 4.023438 27.414062 4.480469 27.660156 4.960938 27.859375 C 5.441406 28.058594 5.9375 28.207031 6.449219 28.308594 C 6.960938 28.410156 7.476562 28.460938 7.996094 28.460938 C 8.515625 28.460938 9.03125 28.410156 9.542969 28.308594 C 10.050781 28.207031 10.546875 28.058594 11.027344 27.859375 C 11.507812 27.660156 11.964844 27.414062 12.398438 27.125 C 12.832031 26.835938 13.230469 26.507812 13.597656 26.140625 C 13.96875 25.773438 14.296875 25.371094 14.585938 24.9375 C 14.875 24.507812 15.117188 24.050781 15.316406 23.570312 C 15.515625 23.089844 15.667969 22.59375 15.769531 22.082031 C 15.871094 21.570312 15.921875 21.058594 15.921875 20.535156 C 15.921875 20.015625 15.871094 19.5 15.769531 18.992188 C 15.667969 18.480469 15.515625 17.984375 15.316406 17.503906 C 15.117188 17.023438 14.875 16.566406 14.585938 16.132812 C 14.296875 15.699219 13.96875 15.300781 13.597656 14.933594 C 13.230469 14.566406 12.832031 14.234375 12.398438 13.945312 C 11.964844 13.65625 11.507812 13.414062 11.027344 13.214844 C 10.546875 13.015625 10.050781 12.867188 9.542969 12.765625 C 9.03125 12.664062 8.515625 12.613281 7.996094 12.613281 C 7.476562 12.613281 6.960938 12.664062 6.449219 12.765625 C 5.9375 12.867188 5.441406 13.015625 4.960938 13.214844 C 4.480469 13.414062 4.023438 13.65625 3.59375 13.945312 C 3.160156 14.234375 2.757812 14.566406 2.390625 14.933594 C 2.023438 15.300781 1.695312 15.699219 1.40625 16.132812 C 1.117188 16.566406 0.871094 17.023438 0.671875 17.503906 C 0.472656 17.984375 0.324219 18.480469 0.222656 18.992188 C 0.121094 19.5 0.0703125 20.015625 0.0703125 20.535156 Z M 0.0703125 20.535156 "></path></g><g clip-rule="nonzero" clip-path="url(#87bf8cd1b1)"><path style=" stroke:none;fill-rule:nonzero;fill:#f67c24;fill-opacity:1;" d="M 7.921875 21.65625 L 141.25 21.179688 L 140.734375 20.957031 L 177.378906 58.980469 L 177.539062 59.144531 L 177.761719 59.144531 L 299.820312 58.621094 L 177.761719 58.09375 L 178.140625 58.257812 L 141.765625 19.96875 L 141.558594 19.746094 L 141.25 19.746094 L 7.921875 19.417969 Z M 7.921875 21.65625 "></path></g><g clip-rule="nonzero" clip-path="url(#03f3c7ec59)"><path style=" stroke:none;fill-rule:nonzero;fill:#f67c24;fill-opacity:1;" d="M 73.441406 8.015625 C 73.441406 8.535156 73.492188 9.050781 73.59375 9.5625 C 73.695312 10.074219 73.84375 10.570312 74.042969 11.050781 C 74.242188 11.53125 74.484375 11.988281 74.777344 12.417969 C 75.066406 12.851562 75.394531 13.253906 75.761719 13.621094 C 76.128906 13.988281 76.527344 14.316406 76.960938 14.605469 C 77.394531 14.894531 77.851562 15.140625 78.332031 15.339844 C 78.8125 15.539062 79.308594 15.6875 79.820312 15.789062 C 80.328125 15.890625 80.84375 15.941406 81.363281 15.941406 C 81.886719 15.941406 82.402344 15.890625 82.910156 15.789062 C 83.421875 15.6875 83.917969 15.539062 84.398438 15.339844 C 84.878906 15.140625 85.335938 14.894531 85.769531 14.605469 C 86.199219 14.316406 86.601562 13.988281 86.96875 13.621094 C 87.335938 13.253906 87.664062 12.851562 87.953125 12.417969 C 88.242188 11.988281 88.488281 11.53125 88.6875 11.050781 C 88.886719 10.570312 89.035156 10.074219 89.136719 9.5625 C 89.238281 9.050781 89.289062 8.535156 89.289062 8.015625 C 89.289062 7.496094 89.238281 6.980469 89.136719 6.46875 C 89.035156 5.960938 88.886719 5.464844 88.6875 4.984375 C 88.488281 4.503906 88.242188 4.046875 87.953125 3.613281 C 87.664062 3.179688 87.335938 2.78125 86.96875 2.414062 C 86.601562 2.042969 86.199219 1.714844 85.769531 1.425781 C 85.335938 1.136719 84.878906 0.894531 84.398438 0.695312 C 83.917969 0.496094 83.421875 0.34375 82.910156 0.242188 C 82.402344 0.140625 81.886719 0.0898438 81.363281 0.0898438 C 80.84375 0.0898438 80.328125 0.140625 79.820312 0.242188 C 79.308594 0.34375 78.8125 0.496094 78.332031 0.695312 C 77.851562 0.894531 77.394531 1.136719 76.960938 1.425781 C 76.527344 1.714844 76.128906 2.042969 75.761719 2.414062 C 75.394531 2.78125 75.066406 3.179688 74.777344 3.613281 C 74.484375 4.046875 74.242188 4.503906 74.042969 4.984375 C 73.84375 5.464844 73.695312 5.960938 73.59375 6.46875 C 73.492188 6.980469 73.441406 7.496094 73.441406 8.015625 Z M 73.441406 8.015625 "></path></g><path style=" stroke:none;fill-rule:nonzero;fill:#f67c24;fill-opacity:1;" d="M 82.738281 9.136719 L 102.035156 9.035156 L 111.683594 8.992188 L 116.507812 8.972656 L 117.628906 8.972656 C 117.644531 10.640625 117.539062 6.695312 117.621094 7.101562 L 117.609375 7.101562 L 116.414062 7.113281 L 114.003906 7.136719 L 111.589844 7.15625 L 110.371094 7.171875 L 110.308594 7.171875 C 110.210938 6.785156 110.332031 10.570312 110.324219 8.964844 L 111.503906 8.964844 L 116.328125 8.945312 L 125.980469 8.898438 L 145.277344 8.796875 L 144.769531 8.585938 L 181.421875 45.574219 L 181.578125 45.734375 L 181.796875 45.734375 L 298.925781 45.207031 L 181.792969 44.679688 L 182.167969 44.839844 L 145.792969 7.585938 L 145.585938 7.375 L 145.28125 7.375 L 125.984375 7.273438 L 116.335938 7.21875 L 111.511719 7.1875 L 110.386719 7.1875 C 110.371094 5.585938 110.472656 9.367188 110.394531 8.980469 L 117.707031 8.980469 C 117.8125 9.382812 117.683594 5.4375 117.691406 7.105469 L 116.515625 7.105469 L 111.6875 7.074219 L 102.039062 7.019531 L 82.738281 6.914062 Z M 82.738281 9.136719 "></path></g></svg>