<svg xmlns="http://www.w3.org/2000/svg" xmlns:xlink="http://www.w3.org/1999/xlink" width="401" zoomAndPan="magnify" viewBox="0 0 300.75 60" height="80" preserveAspectRatio="xMidYMid meet" version="1.2"><defs><clipPath id="b657f2b142"><path d="M 283 30 L 299.75 30 L 299.75 47 L 283 47 Z M 283 30 "></path></clipPath><clipPath id="87399be73e"><path d="M 0 0.0351562 L 292 0.0351562 L 292 40 L 0 40 Z M 0 0.0351562 "></path></clipPath><clipPath id="2213dddb43"><path d="M 283 30 L 299.75 30 L 299.75 47 L 283 47 Z M 283 30 "></path></clipPath><clipPath id="6fdc1c1bca"><path d="M 0 0.0351562 L 292 0.0351562 L 292 40 L 0 40 Z M 0 0.0351562 "></path></clipPath><clipPath id="e8320a4150"><path d="M 210 43 L 227 43 L 227 59.226562 L 210 59.226562 Z M 210 43 "></path></clipPath></defs><g id="3e2578a1f4"><path style=" stroke:none;fill-rule:nonzero;fill:#fca528;fill-opacity:1;" d="M 211.101562 25.488281 C 211.101562 25.144531 211.070312 24.800781 211 24.460938 C 210.933594 24.125 210.835938 23.792969 210.703125 23.476562 C 210.570312 23.15625 210.40625 22.851562 210.214844 22.566406 C 210.023438 22.277344 209.804688 22.011719 209.5625 21.769531 C 209.316406 21.523438 209.050781 21.308594 208.765625 21.113281 C 208.476562 20.921875 208.175781 20.761719 207.855469 20.628906 C 207.535156 20.496094 207.207031 20.398438 206.871094 20.328125 C 206.53125 20.261719 206.1875 20.230469 205.84375 20.230469 C 205.5 20.230469 205.15625 20.261719 204.816406 20.328125 C 204.480469 20.398438 204.148438 20.496094 203.832031 20.628906 C 203.511719 20.761719 203.207031 20.921875 202.921875 21.113281 C 202.632812 21.308594 202.367188 21.523438 202.125 21.769531 C 201.878906 22.011719 201.664062 22.277344 201.46875 22.566406 C 201.277344 22.851562 201.117188 23.15625 200.984375 23.476562 C 200.851562 23.792969 200.753906 24.125 200.683594 24.460938 C 200.617188 24.800781 200.585938 25.144531 200.585938 25.488281 C 200.585938 25.832031 200.617188 26.175781 200.683594 26.515625 C 200.753906 26.851562 200.851562 27.179688 200.984375 27.5 C 201.117188 27.820312 201.277344 28.121094 201.46875 28.410156 C 201.664062 28.695312 201.878906 28.960938 202.125 29.207031 C 202.367188 29.449219 202.632812 29.667969 202.921875 29.859375 C 203.207031 30.050781 203.511719 30.214844 203.832031 30.347656 C 204.148438 30.480469 204.480469 30.578125 204.816406 30.644531 C 205.15625 30.714844 205.5 30.746094 205.84375 30.746094 C 206.1875 30.746094 206.53125 30.714844 206.871094 30.644531 C 207.207031 30.578125 207.535156 30.480469 207.855469 30.347656 C 208.175781 30.214844 208.476562 30.050781 208.765625 29.859375 C 209.050781 29.667969 209.316406 29.449219 209.5625 29.207031 C 209.804688 28.960938 210.023438 28.695312 210.214844 28.410156 C 210.40625 28.121094 210.570312 27.820312 210.703125 27.5 C 210.835938 27.179688 210.933594 26.851562 211 26.515625 C 211.070312 26.175781 211.101562 25.832031 211.101562 25.488281 Z M 211.101562 25.488281 "></path><path style=" stroke:none;fill-rule:nonzero;fill:#fca528;fill-opacity:1;" d="M 205.539062 24.175781 L 3.25 25.285156 L 205.539062 26.414062 Z M 205.539062 24.175781 "></path><g clip-rule="nonzero" clip-path="url(#b657f2b142)"><path style=" stroke:none;fill-rule:nonzero;fill:#fca528;fill-opacity:1;" d="M 299.75 38.726562 C 299.75 38.207031 299.699219 37.691406 299.597656 37.179688 C 299.496094 36.667969 299.347656 36.175781 299.148438 35.691406 C 298.949219 35.210938 298.703125 34.753906 298.414062 34.324219 C 298.125 33.890625 297.796875 33.488281 297.429688 33.121094 C 297.0625 32.753906 296.660156 32.425781 296.230469 32.136719 C 295.796875 31.847656 295.339844 31.601562 294.859375 31.402344 C 294.378906 31.203125 293.882812 31.054688 293.371094 30.953125 C 292.863281 30.851562 292.347656 30.800781 291.824219 30.800781 C 291.304688 30.800781 290.789062 30.851562 290.28125 30.953125 C 289.769531 31.054688 289.273438 31.203125 288.792969 31.402344 C 288.3125 31.601562 287.855469 31.847656 287.421875 32.136719 C 286.988281 32.425781 286.589844 32.753906 286.222656 33.121094 C 285.855469 33.488281 285.527344 33.890625 285.234375 34.324219 C 284.945312 34.753906 284.703125 35.210938 284.503906 35.691406 C 284.304688 36.171875 284.15625 36.667969 284.054688 37.179688 C 283.953125 37.691406 283.902344 38.207031 283.902344 38.726562 C 283.902344 39.246094 283.953125 39.761719 284.054688 40.273438 C 284.15625 40.78125 284.304688 41.277344 284.503906 41.757812 C 284.703125 42.238281 284.945312 42.695312 285.234375 43.128906 C 285.527344 43.5625 285.855469 43.960938 286.222656 44.328125 C 286.589844 44.699219 286.988281 45.027344 287.421875 45.316406 C 287.855469 45.605469 288.3125 45.847656 288.792969 46.046875 C 289.273438 46.246094 289.769531 46.398438 290.28125 46.5 C 290.789062 46.601562 291.304688 46.652344 291.824219 46.652344 C 292.347656 46.652344 292.863281 46.601562 293.371094 46.5 C 293.882812 46.398438 294.378906 46.246094 294.859375 46.046875 C 295.339844 45.847656 295.796875 45.605469 296.230469 45.316406 C 296.660156 45.027344 297.0625 44.699219 297.429688 44.328125 C 297.796875 43.960938 298.125 43.5625 298.414062 43.128906 C 298.703125 42.695312 298.949219 42.238281 299.148438 41.757812 C 299.347656 41.277344 299.496094 40.78125 299.597656 40.273438 C 299.699219 39.761719 299.75 39.246094 299.75 38.726562 Z M 299.75 38.726562 "></path></g><g clip-rule="nonzero" clip-path="url(#87399be73e)"><path style=" stroke:none;fill-rule:nonzero;fill:#fca528;fill-opacity:1;" d="M 291.898438 37.605469 L 158.570312 38.085938 L 159.085938 38.304688 L 122.441406 0.28125 L 122.28125 0.117188 L 122.0625 0.117188 L 0 0.644531 L 122.0625 1.167969 L 121.679688 1.007812 L 158.054688 39.292969 L 158.261719 39.515625 L 158.570312 39.515625 L 291.898438 39.847656 Z M 291.898438 37.605469 "></path></g><g clip-rule="nonzero" clip-path="url(#2213dddb43)"><path style=" stroke:none;fill-rule:nonzero;fill:#fca528;fill-opacity:1;" d="M 299.75 38.726562 C 299.75 38.207031 299.699219 37.691406 299.597656 37.179688 C 299.496094 36.667969 299.347656 36.175781 299.148438 35.691406 C 298.949219 35.210938 298.703125 34.753906 298.414062 34.324219 C 298.125 33.890625 297.796875 33.488281 297.429688 33.121094 C 297.0625 32.753906 296.660156 32.425781 296.230469 32.136719 C 295.796875 31.847656 295.339844 31.601562 294.859375 31.402344 C 294.378906 31.203125 293.882812 31.054688 293.371094 30.953125 C 292.863281 30.851562 292.347656 30.800781 291.824219 30.800781 C 291.304688 30.800781 290.789062 30.851562 290.28125 30.953125 C 289.769531 31.054688 289.273438 31.203125 288.792969 31.402344 C 288.3125 31.601562 287.855469 31.847656 287.421875 32.136719 C 286.988281 32.425781 286.589844 32.753906 286.222656 33.121094 C 285.855469 33.488281 285.527344 33.890625 285.234375 34.324219 C 284.945312 34.753906 284.703125 35.210938 284.503906 35.691406 C 284.304688 36.171875 284.15625 36.667969 284.054688 37.179688 C 283.953125 37.691406 283.902344 38.207031 283.902344 38.726562 C 283.902344 39.246094 283.953125 39.761719 284.054688 40.273438 C 284.15625 40.78125 284.304688 41.277344 284.503906 41.757812 C 284.703125 42.238281 284.945312 42.695312 285.234375 43.128906 C 285.527344 43.5625 285.855469 43.960938 286.222656 44.328125 C 286.589844 44.699219 286.988281 45.027344 287.421875 45.316406 C 287.855469 45.605469 288.3125 45.847656 288.792969 46.046875 C 289.273438 46.246094 289.769531 46.398438 290.28125 46.5 C 290.789062 46.601562 291.304688 46.652344 291.824219 46.652344 C 292.347656 46.652344 292.863281 46.601562 293.371094 46.5 C 293.882812 46.398438 294.378906 46.246094 294.859375 46.046875 C 295.339844 45.847656 295.796875 45.605469 296.230469 45.316406 C 296.660156 45.027344 297.0625 44.699219 297.429688 44.328125 C 297.796875 43.960938 298.125 43.5625 298.414062 43.128906 C 298.703125 42.695312 298.949219 42.238281 299.148438 41.757812 C 299.347656 41.277344 299.496094 40.78125 299.597656 40.273438 C 299.699219 39.761719 299.75 39.246094 299.75 38.726562 Z M 299.75 38.726562 "></path></g><g clip-rule="nonzero" clip-path="url(#6fdc1c1bca)"><path style=" stroke:none;fill-rule:nonzero;fill:#fca528;fill-opacity:1;" d="M 291.898438 37.605469 L 158.570312 38.085938 L 159.085938 38.304688 L 122.441406 0.28125 L 122.28125 0.117188 L 122.0625 0.117188 L 0 0.644531 L 122.0625 1.167969 L 121.679688 1.007812 L 158.054688 39.292969 L 158.261719 39.515625 L 158.570312 39.515625 L 291.898438 39.847656 Z M 291.898438 37.605469 "></path></g><g clip-rule="nonzero" clip-path="url(#e8320a4150)"><path style=" stroke:none;fill-rule:nonzero;fill:#fca528;fill-opacity:1;" d="M 226.382812 51.246094 C 226.382812 50.726562 226.332031 50.210938 226.230469 49.699219 C 226.128906 49.1875 225.976562 48.695312 225.777344 48.214844 C 225.578125 47.730469 225.335938 47.277344 225.046875 46.84375 C 224.757812 46.410156 224.429688 46.011719 224.058594 45.640625 C 223.691406 45.273438 223.292969 44.945312 222.859375 44.65625 C 222.425781 44.367188 221.96875 44.125 221.488281 43.925781 C 221.007812 43.726562 220.511719 43.574219 220.003906 43.472656 C 219.492188 43.371094 218.976562 43.320312 218.457031 43.320312 C 217.9375 43.320312 217.421875 43.371094 216.910156 43.472656 C 216.398438 43.574219 215.902344 43.726562 215.421875 43.925781 C 214.941406 44.125 214.484375 44.367188 214.054688 44.65625 C 213.621094 44.945312 213.21875 45.273438 212.851562 45.640625 C 212.484375 46.011719 212.15625 46.410156 211.867188 46.84375 C 211.578125 47.277344 211.332031 47.730469 211.132812 48.214844 C 210.933594 48.695312 210.785156 49.1875 210.683594 49.699219 C 210.582031 50.210938 210.53125 50.726562 210.53125 51.246094 C 210.53125 51.765625 210.582031 52.28125 210.683594 52.792969 C 210.785156 53.300781 210.933594 53.796875 211.132812 54.277344 C 211.332031 54.757812 211.578125 55.214844 211.867188 55.648438 C 212.15625 56.082031 212.484375 56.480469 212.851562 56.847656 C 213.21875 57.21875 213.621094 57.546875 214.054688 57.835938 C 214.484375 58.125 214.941406 58.367188 215.421875 58.566406 C 215.902344 58.765625 216.398438 58.917969 216.910156 59.019531 C 217.421875 59.121094 217.9375 59.171875 218.457031 59.171875 C 218.976562 59.171875 219.492188 59.121094 220.003906 59.019531 C 220.511719 58.917969 221.007812 58.765625 221.488281 58.566406 C 221.96875 58.367188 222.425781 58.125 222.859375 57.835938 C 223.292969 57.546875 223.691406 57.21875 224.058594 56.847656 C 224.429688 56.480469 224.757812 56.082031 225.046875 55.648438 C 225.335938 55.214844 225.578125 54.757812 225.777344 54.277344 C 225.976562 53.796875 226.128906 53.300781 226.230469 52.792969 C 226.332031 52.28125 226.382812 51.765625 226.382812 51.246094 Z M 226.382812 51.246094 "></path></g><path style=" stroke:none;fill-rule:nonzero;fill:#fca528;fill-opacity:1;" d="M 217.085938 50.125 L 197.785156 50.226562 L 188.136719 50.269531 L 183.3125 50.289062 L 182.191406 50.289062 C 182.175781 48.621094 182.28125 52.566406 182.199219 52.160156 L 182.210938 52.160156 L 183.40625 52.148438 L 185.816406 52.128906 L 188.230469 52.105469 L 189.449219 52.089844 L 189.511719 52.089844 C 189.613281 52.476562 189.492188 48.691406 189.496094 50.300781 L 188.320312 50.300781 L 183.492188 50.316406 L 173.84375 50.363281 L 154.542969 50.464844 L 155.050781 50.679688 L 118.398438 13.6875 L 118.242188 13.527344 L 118.023438 13.527344 L 0.894531 14.054688 L 118.027344 14.582031 L 117.65625 14.425781 L 154.027344 51.675781 L 154.234375 51.886719 L 154.539062 51.886719 L 173.835938 51.988281 L 183.488281 52.042969 L 188.308594 52.074219 L 189.433594 52.074219 C 189.449219 53.675781 189.347656 49.894531 189.425781 50.285156 L 182.113281 50.285156 C 182.007812 49.878906 182.136719 53.828125 182.132812 52.15625 L 183.304688 52.15625 L 188.132812 52.1875 L 197.78125 52.242188 L 217.082031 52.347656 Z M 217.085938 50.125 "></path></g></svg>